M48
;DRILL file {KiCad no-vcs-found-undefined} date Mon Oct 17 17:10:23 2016
;FORMAT={-:-/ absolute / inch / decimal}
FMAT,2
INCH,TZ
T1C0.012
T2C0.032
T3C0.035
T4C0.039
T5C0.040
T6C0.043
T7C0.047
T8C0.073
T9C0.087
T10C0.094
T11C0.098
T12C0.125
T13C0.126
%
G90
G05
M72
T1
X2.835Y-3.1446
X2.874Y-2.2559
X2.874Y-2.3268
X2.9041Y-3.062
X2.9317Y-3.0335
X2.9409Y-2.4134
X2.973Y-2.9921
X3.0144Y-2.9508
X3.0157Y-5.3366
X3.0577Y-2.9094
X3.0591Y-2.4134
X3.099Y-2.8681
X3.1299Y-2.2559
X3.1299Y-2.3268
X3.227Y-3.3848
X3.2555Y-3.3583
X3.2949Y-2.6732
X3.3175Y-3.2539
X3.3352Y-2.6319
X3.3402Y-3.2756
X3.3776Y-2.5896
X3.3937Y-5.3386
X3.3972Y-3.1752
X3.4189Y-2.5472
X3.4228Y-3.1919
X3.4612Y-2.5059
X3.4888Y-2.4783
X3.5079Y-4.0744
X3.5398Y-4.1004
X3.5921Y-2.9685
X3.6177Y-2.997
X3.6551Y-3.9567
X3.6758Y-2.8858
X3.7014Y-2.9134
X3.7114Y-4.1165
X3.7299Y-3.2756
X3.7506Y-3.3022
X3.7535Y-4.1575
X3.7673Y-3.9852
X3.7717Y-5.3386
X3.7843Y-4.2949
X3.785Y-2.8297
X3.8136Y-2.8022
X3.8185Y-3.6506
X3.8185Y-3.8169
X3.8195Y-3.4852
X3.8195Y-3.5689
X3.8195Y-3.7343
X3.8205Y-3.8996
X3.8205Y-3.9429
X3.8224Y-3.4114
X3.85Y-3.3907
X3.8539Y-4.0246
X3.8579Y-3.9567
X3.8736Y-4.3106
X3.878Y-3.2283
X3.8898Y-4.4843
X3.8963Y-4.0187
X3.9022Y-3.4006
X3.9063Y-4.2098
X3.9291Y-1.8071
X3.9366Y-4.0256
X3.9606Y-4.8752
X3.9677Y-3.2331
X3.9724Y-4.4843
X3.9764Y-2.1378
X3.9843Y-1.6417
X3.9945Y-4.3213
X4.0016Y-4.8677
X4.0163Y-3.3937
X4.0193Y-4.0256
X4.0268Y-4.1854
X4.0425Y-4.2134
X4.052Y-4.2858
X4.0567Y-3.3937
X4.0787Y-4.4843
X4.098Y-3.3927
X4.103Y-4.0246
X4.1146Y-4.1953
X4.115Y-2.8449
X4.1354Y-2.6906
X4.1461Y-3.2252
X4.1496Y-5.3386
X4.1614Y-4.4843
X4.1787Y-4.1945
X4.1817Y-3.3937
X4.1856Y-4.0266
X4.2634Y-3.3927
X4.2673Y-4.0256
X4.2783Y-4.1949
X4.2819Y-2.7654
X4.2949Y-2.8504
X4.2992Y-4.6339
X4.2992Y-4.7756
X4.3461Y-3.3917
X4.35Y-4.0256
X4.3748Y-4.2256
X4.376Y-4.1929
X4.3823Y-2.6543
X4.3839Y-4.452
X4.4051Y-4.4303
X4.4201Y-2.6547
X4.4339Y-4.372
X4.4382Y-4.2846
X4.4425Y-3.3533
X4.4494Y-3.9656
X4.4524Y-4.186
X4.4533Y-4.0581
X4.4555Y-4.3508
X4.4713Y-2.4299
X4.4768Y-4.3291
X4.4894Y-2.5228
X4.4927Y-3.6959
X4.4937Y-3.9488
X4.4947Y-3.5256
X4.4947Y-3.8642
X4.4957Y-3.3602
X4.4957Y-4.0295
X4.4961Y-2.1732
X4.4976Y-4.3075
X4.5026Y-3.44
X4.5197Y-4.285
X4.5276Y-5.3386
X4.5331Y-3.252
X4.5341Y-4.1093
X4.5626Y-2.8461
X4.563Y-4.2106
X4.5874Y-2.8209
X4.5965Y-4.3508
X4.6071Y-3.3236
X4.6091Y-3.3602
X4.6102Y-4.4614
X4.6228Y-4.1886
X4.6472Y-2.915
X4.6547Y-2.9862
X4.6657Y-2.7701
X4.6839Y-5.3697
X4.6969Y-3.7201
X4.7154Y-4.065
X4.7165Y-5.1142
X4.7173Y-4.0996
X4.7181Y-4.1339
X4.7185Y-4.1657
X4.7315Y-3.7299
X4.7453Y-4.0508
X4.7665Y-3.7016
X4.7665Y-4.0287
X4.7886Y-3.7457
X4.789Y-4.8516
X4.789Y-4.9217
X4.7913Y-4.5669
X4.7921Y-2.9146
X4.7925Y-4.0043
X4.8031Y-3.076
X4.8055Y-3.1512
X4.8142Y-3.9823
X4.8406Y-4.526
X4.8638Y-4.3496
X4.8685Y-2.5197
X4.8764Y-3.1657
X4.8898Y-4.5669
X4.8898Y-4.8465
X4.9114Y-3.9602
X4.9122Y-2.7476
X4.9142Y-3.7051
X4.9248Y-2.6606
X4.9327Y-3.9394
X4.9331Y-2.7717
X4.9409Y-4.8465
X4.9445Y-2.3528
X4.9535Y-3.9181
X4.9685Y-2.5185
X4.9752Y-3.8972
X4.9902Y-4.8425
X4.9921Y-4.5669
X4.9965Y-3.876
X5.0094Y-4.4075
X5.0181Y-3.8453
X5.0197Y-2.5201
X5.0343Y-3.8185
X5.0445Y-2.6504
X5.0626Y-3.7972
X5.0689Y-3.5362
X5.0701Y-2.5213
X5.078Y-3.7606
X5.0791Y-4.052
X5.0795Y-4.2307
X5.0952Y-3.6656
X5.1244Y-2.5209
X5.1319Y-4.6917
X5.1339Y-3.5354
X5.1382Y-2.5622
X5.1614Y-2.7283
X5.1722Y-3.6299
X5.1762Y-4.4577
X5.1787Y-3.2374
X5.1876Y-3.4506
X5.1988Y-4.8051
X5.2382Y-3.878
X5.2402Y-4.2096
X5.2402Y-4.5417
X5.2421Y-4.0433
X5.2431Y-3.7057
X5.2431Y-4.376
X5.2451Y-4.2894
X5.2539Y-3.7343
X5.2581Y-3.4603
X5.2638Y-4.4026
X5.2638Y-5.0079
X5.2638Y-5.3465
X5.2666Y-4.0138
X5.2854Y-3.5504
X5.2953Y-2.9205
X5.3012Y-3.7362
X5.3189Y-2.5079
X5.3474Y-4.3652
X5.3543Y-3.7421
X5.3661Y-4.7717
X5.3681Y-2.8646
X5.3713Y-2.9213
X5.38Y-3.5669
X5.3831Y-3.2831
X5.3843Y-3.3185
X5.389Y-3.4475
X5.4213Y-2.587
X5.4272Y-3.7244
X5.4291Y-4.3612
X5.4333Y-4.5184
X5.4508Y-4.559
X5.4583Y-2.9878
X5.4714Y-3.5327
X5.4803Y-3.3957
X5.4984Y-5.2598
X5.5098Y-3.7283
X5.5148Y-4.3612
X5.5669Y-3.3976
X5.5785Y-3.4909
X5.5965Y-4.3642
X5.5965Y-5.0229
X5.6089Y-3.4908
X5.6142Y-5.0669
X5.6142Y-5.2598
X5.6148Y-3.3275
X5.6263Y-4.3639
X5.6319Y-3.7402
X5.6378Y-2.1575
X5.6469Y-3.5508
X5.6535Y-3.3976
X5.6713Y-4.8496
X5.6728Y-3.5153
X5.6732Y-3.7323
X5.6791Y-2.0756
X5.6801Y-4.3622
X5.6909Y-3.5731
X5.7083Y-4.2814
X5.7091Y-4.8492
X5.7138Y-2.83
X5.7151Y-3.5529
X5.7232Y-2.0752
X5.739Y-2.8772
X5.7402Y-3.3976
X5.7535Y-4.5661
X5.7608Y-4.3701
X5.7638Y-2.5906
X5.7638Y-2.7539
X5.7756Y-2.1575
X5.7992Y-3.7362
X5.8036Y-4.5633
X5.8039Y-4.5331
X5.8331Y-4.6327
X5.8386Y-3.7264
X5.8445Y-2.8992
X5.8445Y-3.5731
X5.8445Y-4.3661
X5.865Y-3.7502
X5.8767Y-4.3022
X5.9016Y-2.5906
X5.9016Y-2.7559
X5.9016Y-3.8346
X5.9075Y-3.748
X5.9094Y-4.5994
X5.9114Y-4.2419
X5.9154Y-4.0079
X5.9154Y-4.0925
X5.9193Y-3.9252
X5.9193Y-4.1752
X5.9291Y-3.689
X5.9429Y-4.4035
X5.9514Y-3.3217
X5.9528Y-4.3543
X5.9646Y-3.7539
X5.9655Y-3.4507
X5.9667Y-4.5041
X5.9708Y-2.9261
X5.9828Y-4.6383
X6.0413Y-3.4882
X6.0729Y-3.398
X6.0762Y-3.4998
X6.0764Y-3.4289
X6.0826Y-3.3217
X6.0865Y-3.1038
X6.0866Y-3.8031
X6.0886Y-4.1731
X6.0945Y-3.4713
X6.1784Y-4.3774
X6.2024Y-4.4048
X6.2186Y-4.3561
X6.278Y-4.3429
X6.2854Y-4.7093
X6.311Y-5.1654
X6.3543Y-3.5394
X6.3551Y-3.4
X6.3902Y-3.6112
X6.4638Y-4.8122
X6.4764Y-4.3795
X6.5709Y-4.2323
X6.5827Y-4.0965
X6.7402Y-4.0965
X6.7677Y-4.3543
X6.8346Y-4.2323
X6.8925Y-3.0484
X6.8929Y-3.1091
X6.8976Y-4.0965
X6.9012Y-4.3783
X6.902Y-4.7677
X6.9638Y-4.3815
X6.9661Y-4.8469
X7.0311Y-3.4877
X7.0527Y-3.5089
X7.0551Y-4.0965
X7.0614Y-4.3815
X7.0642Y-4.7583
X7.1776Y-3.391
X7.2134Y-3.35
X7.3031Y-5.1181
X7.4061Y-3.1136
X7.4395Y-3.0795
X7.5055Y-4.6988
X7.5063Y-4.3783
X7.5256Y-4.0965
X7.5433Y-5.1654
X7.5984Y-2.189
X7.6028Y-2.228
X7.6142Y-2.0886
X7.6181Y-2.4921
X7.6583Y-4.8476
X7.6831Y-4.0965
X7.7031Y-4.3803
X7.7244Y-2.7638
X7.7992Y-4.2323
X7.8402Y-3.3484
X7.8406Y-4.0965
X7.8898Y-2.2047
X7.8937Y-2.5768
X7.9406Y-3.4839
X7.9567Y-2.5118
X7.9961Y-4.3543
X7.998Y-4.0965
X8.063Y-4.2362
X8.0638Y-4.8433
X8.0929Y-4.7083
X8.1299Y-4.3386
X8.1937Y-4.3417
X8.2063Y-4.6736
X8.2929Y-4.3413
X8.5394Y-5.1181
T2
X2.8657Y-5.0181
X2.8657Y-5.2181
X3.1657Y-5.0181
X3.1657Y-5.2181
X3.2437Y-5.0181
X3.2437Y-5.2181
X3.5437Y-5.0181
X3.5437Y-5.2181
X3.6217Y-5.0181
X3.6217Y-5.2181
X3.9217Y-5.0181
X3.9217Y-5.2181
X3.9996Y-5.0181
X3.9996Y-5.2181
X4.2996Y-5.0181
X4.2996Y-5.2181
X4.3776Y-5.0181
X4.3776Y-5.2181
X4.6776Y-5.0181
X4.6776Y-5.2181
T3
X7.7898Y-1.9304
X7.8443Y-1.8304
X7.8988Y-1.9304
X7.9534Y-1.8304
X8.0079Y-1.9304
X8.0624Y-1.8304
X8.117Y-1.9304
X8.1715Y-1.8304
X8.226Y-1.9304
T5
X4.3937Y-1.626
X4.3937Y-1.726
X4.3937Y-1.826
X4.3937Y-1.926
X4.6067Y-1.9236
X4.6067Y-2.0236
X4.7067Y-1.9236
X4.7067Y-2.0236
X4.8067Y-1.9236
X4.8067Y-2.0236
X4.9067Y-1.9236
X4.9067Y-2.0236
X5.0067Y-1.9236
X5.0067Y-2.0236
X5.1067Y-1.9236
X5.1067Y-2.0236
X5.2067Y-1.9236
X5.2067Y-2.0236
X5.6079Y-3.0079
X5.6079Y-3.1079
X5.7079Y-3.0079
X5.7079Y-3.1079
X5.8079Y-3.0079
X5.8079Y-3.1079
X5.9079Y-3.0079
X5.9079Y-3.1079
X6.0079Y-3.0079
X6.0079Y-3.1079
X8.1693Y-2.4224
X8.1693Y-2.5224
X8.1693Y-2.6224
X8.1693Y-2.7224
X8.1693Y-2.8224
X8.1693Y-2.9224
X8.1693Y-3.0224
X8.1693Y-3.1224
X8.1693Y-3.2224
X8.1693Y-3.5071
X8.1693Y-3.6071
X8.1693Y-3.7071
X8.1693Y-3.8071
X8.2693Y-2.4224
X8.2693Y-2.5224
X8.2693Y-2.6224
X8.2693Y-2.7224
X8.2693Y-2.8224
X8.2693Y-2.9224
X8.2693Y-3.0224
X8.2693Y-3.1224
X8.2693Y-3.2224
X8.2693Y-3.5071
X8.2693Y-3.6071
X8.2693Y-3.7071
X8.2693Y-3.8071
T6
X5.502Y-1.8602
X5.502Y-1.9587
X5.5846Y-1.8602
X5.687Y-1.8602
X5.7697Y-1.8602
X5.7697Y-1.9587
T7
X6.4209Y-1.976
X6.4657Y-1.876
X6.4657Y-2.076
X6.511Y-1.976
X6.5559Y-1.876
X6.5559Y-2.076
X6.6012Y-1.976
X6.6461Y-1.876
X6.6461Y-2.076
X6.6913Y-1.976
X6.7362Y-1.876
X6.7362Y-2.076
X6.7815Y-1.976
X6.8264Y-1.876
X6.8264Y-2.076
T8
X3.3581Y-1.6209
X3.4331Y-1.9961
X3.6181Y-1.9961
X3.8031Y-1.9961
X3.8781Y-1.6209
T9
X2.9327Y-4.7685
X3.3539Y-2.2575
X5.2146Y-2.3209
X5.9618Y-5.1677
X7.9201Y-3.8555
X8.5075Y-2.1921
T10
X5.3697Y-1.7425
X5.6358Y-1.7106
X5.902Y-1.7425
T11
X4.1335Y-3.7087
X5.5984Y-4.0433
T12
X6.1437Y-1.9756
X7.1276Y-1.9756
T13
X7.516Y-1.8804
X8.4998Y-1.8804
T4
X2.88Y-1.9075G85X2.88Y-1.9862
G05
X3.1043Y-1.8288G85X3.0256Y-1.8288
G05
X3.1043Y-2.065G85X3.0256Y-2.065
G05
T0
M30
